<svg width="258" height="30" viewBox="0 0 258 30" fill="none" xmlns="http://www.w3.org/2000/svg">
<path d="M32.1333 0.933335L20.6667 20.2333V28.9333H11.4333V20.2L0 0.933335H9.7L15.7 11.4667H16.4333L22.4333 0.933335H32.1333ZM45.674 29.8667C36.0406 29.8667 29.8073 23.9 29.8073 14.9333C29.8073 5.96667 36.0406 0 45.674 0C55.3073 0 61.5406 5.96667 61.5406 14.9333C61.5406 23.9 55.3073 29.8667 45.674 29.8667ZM45.674 21.9C49.3406 21.9 52.374 19.3667 52.374 14.9333C52.374 10.5 49.3406 7.96667 45.674 7.96667C42.0073 7.96667 38.974 10.5 38.974 14.9333C38.974 19.3667 42.0073 21.9 45.674 21.9ZM77.8932 29.8667C68.2599 29.8667 63.3932 25.7667 63.3932 16.7333V0.933335H72.6932V16.5C72.6932 19.9667 74.2266 22.1333 77.8932 22.1333C81.5599 22.1333 83.1599 19.9667 83.1599 16.5V0.933335H92.3932V16.6667C92.3932 25.7667 87.5266 29.8667 77.8932 29.8667ZM123.821 28.9333H114.755L110.955 21.7H103.955V28.9333H94.7214V0.933335H110.755C118.521 0.933335 122.888 4.26667 122.888 11.6333C122.888 15.4 121.188 18.0667 118.821 19.7333L123.821 28.9333ZM103.955 8.6V14.8H110.121C112.455 14.8 113.655 13.6667 113.655 11.7C113.655 9.73333 112.455 8.6 110.121 8.6H103.955ZM149.564 29.8667C140.131 29.8667 133.831 23.9 133.831 14.9333C133.831 5.96667 140.131 0 149.564 0C156.397 0 163.397 3 164.331 12.4667H155.531C154.764 9.4 152.597 7.96667 149.564 7.96667C145.897 7.96667 142.997 10.7 142.997 14.9333C142.997 19.1667 145.897 21.9 149.564 21.9C152.597 21.9 154.764 20.4667 155.531 17.3333H164.331C163.397 26.8667 156.464 29.8667 149.564 29.8667ZM187.174 28.9333L185.941 25.2333H173.941L172.708 28.9333H163.174L173.474 0.933335H186.408L196.708 28.9333H187.174ZM176.208 18.4H183.674L180.741 9.6H179.141L176.208 18.4ZM227.142 28.9333H218.075L214.275 21.7H207.275V28.9333H198.042V0.933335H214.075C221.842 0.933335 226.208 4.26667 226.208 11.6333C226.208 15.4 224.508 18.0667 222.142 19.7333L227.142 28.9333ZM207.275 8.6V14.8H213.442C215.775 14.8 216.975 13.6667 216.975 11.7C216.975 9.73333 215.775 8.6 213.442 8.6H207.275ZM257.515 0.933335V8.63333H247.448V28.9333H238.215V8.63333H228.148V0.933335H257.515Z" fill="black"/>
</svg>
